<svg enable-background="new 0 0 512 512" viewBox="0 0 512 512" xmlns="http://www.w3.org/2000/svg"><path d="m155.893 15.168v68.907c0 29.425-23.859 53.284-53.284 53.284h-64.826v-68.907c0-29.425 23.859-53.284 53.284-53.284z" fill="#cff09e"/><g fill="#507c5c"><path d="m102.609 152.526h-64.826c-8.376 0-15.168-6.791-15.168-15.168v-68.906c0-37.745 30.708-68.452 68.453-68.452h64.825c8.376 0 15.168 6.791 15.168 15.168v68.907c0 37.743-30.707 68.451-68.452 68.451zm-49.659-30.335h49.659c21.016 0 38.116-17.099 38.116-38.116v-53.74h-49.657c-21.019 0-38.118 17.099-38.118 38.116z"/><path d="m420.932 512h-329.865c-37.745 0-68.452-30.707-68.452-68.452v-305.695c0-15.445 6.014-29.964 16.935-40.884l80.035-80.034c10.919-10.921 25.439-16.935 40.883-16.935h260.465c37.745 0 68.452 30.707 68.452 68.452v375.097c0 37.743-30.708 68.451-68.453 68.451zm-260.464-481.665c-7.341 0-14.244 2.859-19.434 8.049l-80.034 80.035c-5.192 5.19-8.051 12.093-8.051 19.434v305.695c0 21.016 17.099 38.116 38.116 38.116h329.865c21.018 0 38.118-17.099 38.118-38.116v-375.096c0-21.016-17.099-38.116-38.116-38.116 0-.001-260.464-.001-260.464-.001z"/><path d="m399.482 155.494c-8.376 0-15.168-6.791-15.168-15.168v-30.473c0-3.827-3.114-6.941-6.941-6.941h-119.52c-3.825 0-6.939 3.114-6.939 6.941v30.473c0 8.377-6.792 15.168-15.168 15.168s-15.168-6.791-15.168-15.168v-30.473c0-20.554 16.721-37.276 37.275-37.276h119.52c20.555 0 37.276 16.721 37.276 37.276v30.473c0 8.378-6.79 15.168-15.167 15.168z"/><path d="m400.093 233.74h-288.186c-8.376 0-15.168-6.791-15.168-15.168s6.792-15.168 15.168-15.168h288.186c8.376 0 15.168 6.791 15.168 15.168s-6.792 15.168-15.168 15.168z"/><path d="m400.093 327.021h-288.186c-8.376 0-15.168-6.791-15.168-15.168s6.792-15.168 15.168-15.168h288.186c8.376 0 15.168 6.791 15.168 15.168s-6.792 15.168-15.168 15.168z"/><path d="m400.093 420.302h-288.186c-8.376 0-15.168-6.791-15.168-15.168s6.792-15.168 15.168-15.168h288.186c8.376 0 15.168 6.791 15.168 15.168 0 8.378-6.792 15.168-15.168 15.168z"/></g></svg>