<svg enable-background="new 0 0 512 512" viewBox="0 0 512 512" xmlns="http://www.w3.org/2000/svg"><path d="m464.254 477.404h-416.507c-26.326 0-47.743-21.418-47.743-47.743v-347.322c0-26.326 21.418-47.743 47.743-47.743h416.507c26.326 0 47.743 21.418 47.743 47.743 0 7.641-6.195 13.837-13.837 13.837s-13.837-6.196-13.837-13.837c0-11.066-9.003-20.068-20.068-20.068h-416.508c-11.066 0-20.068 9.003-20.068 20.068v347.322c0 11.066 9.003 20.068 20.068 20.068h416.507c11.066 0 20.068-9.003 20.068-20.068v-185.651c0-7.641 6.195-13.837 13.837-13.837s13.837 6.196 13.837 13.837v185.65c.001 26.327-21.417 47.744-47.742 47.744z" fill="#507c5c"/><path d="m13.843 82.338v69.882h484.318v-69.882c0-18.726-15.18-33.906-33.906-33.906h-416.507c-18.724 0-33.905 15.181-33.905 33.906z" fill="#cff09e"/><g fill="#507c5c"><path d="m498.162 166.057h-484.318c-7.642 0-13.837-6.196-13.837-13.837v-69.88c0-26.326 21.418-47.743 47.743-47.743h416.507c26.326 0 47.743 21.418 47.743 47.743v69.882c0 7.64-6.195 13.835-13.838 13.835zm-470.481-27.675h456.643v-56.043c0-11.066-9.003-20.068-20.068-20.068h-416.506c-11.066 0-20.068 9.003-20.068 20.068z"/><path d="m13.837 166.001c-3.541 0-7.083-1.352-9.784-4.053-5.404-5.404-5.404-14.165 0-19.57l103.725-103.726c5.404-5.402 14.165-5.402 19.57 0 5.404 5.404 5.404 14.165 0 19.57l-103.725 103.726c-2.703 2.702-6.245 4.053-9.786 4.053z"/><path d="m205.195 166.056c-3.541 0-7.082-1.351-9.784-4.053-5.404-5.402-5.405-14.164 0-19.569l103.766-103.781c5.402-5.405 14.164-5.406 19.569-.001 5.404 5.402 5.405 14.164 0 19.569l-103.767 103.78c-2.701 2.704-6.243 4.055-9.784 4.055z"/><path d="m396.58 166.056c-3.542 0-7.082-1.352-9.784-4.053-5.404-5.404-5.404-14.165 0-19.57l92.726-92.725c5.404-5.402 14.164-5.401 19.569 0 5.404 5.404 5.404 14.165 0 19.57l-92.725 92.725c-2.702 2.702-6.245 4.053-9.786 4.053z"/></g><path d="m202.73 225.886 134.218 79.632-134.218 79.63z" fill="#cff09e"/><path d="m202.73 398.987c-2.362 0-4.724-.605-6.847-1.814-4.321-2.46-6.991-7.052-6.991-12.023v-159.264c0-4.973 2.669-9.563 6.991-12.023 4.319-2.462 9.629-2.416 13.908.123l134.217 79.632c4.201 2.493 6.776 7.016 6.776 11.902s-2.575 9.408-6.776 11.902l-134.217 79.632c-2.176 1.287-4.618 1.933-7.061 1.933zm13.838-148.802v110.665l93.262-55.332z" fill="#507c5c"/></svg>